# xmcd CD database file
#
# Track frame offsets:
#	150
#	9546
#	18776
#	33090
#	46890
#	58909
#	66445
#	79220
#	98207
#	110134
#	122396
#	138291
#
# Disc length: 2044 seconds
#
# Revision: 0
# Processed by: cddbd v1.5.2PL0 Copyright (c) Steve Scherf et al.
# Submitted via: CDex 1.77
#
DISCID=9907fa0c
DTITLE=Lizzy Long and Little Roy Lewis - Tradition With A Twist
DYEAR=2011
DGENRE=Country
TTITLE0=Are You From Dixie
TTITLE1=My Closest Kin
TTITLE2=This Flight That Is Leaving Soon
TTITLE3=That Fool's On My Mind
TTITLE4=If You Ever Gonna Love Me
TTITLE5=Joshua
TTITLE6=Nickajack Dam
TTITLE7=Remember Me
TTITLE8=Standing Where He Fell
TTITLE9=It's An Unfriendly World
TTITLE10=Wildflowers
TTITLE11=The Christmas Whittler
EXTD=YEAR: 2011
EXTT0=
EXTT1=
EXTT2=
EXTT3=
EXTT4=
EXTT5=
EXTT6=
EXTT7=
EXTT8=
EXTT9=
EXTT10=
EXTT11=
PLAYORDER=
